<?xml version="1.0" encoding="UTF-8"?>
<svg id="Layer_1" data-name="Layer 1" xmlns="http://www.w3.org/2000/svg" viewBox="0 0 22.06 22.04">
  <defs>
    <style>
      .cls-1 {
        fill: none;
        stroke: #fff;
        stroke-miterlimit: 10;
        stroke-width: 2px;
      }
    </style>
  </defs>
  <path class="cls-1" d="M20.1,8.57c-1.02-.09-2.17-.51-1.31-1.74.4-.56.72-1.12.45-1.61-.22-.41-.5-.67-.88-1.05-.86-.84-1.74-2.16-3.01-1.04-.55.42-1.17.59-1.54.07-.28-.44-.26-1.04-.45-1.49-.27-.73-1.06-.71-1.74-.72-.77.01-1.64-.04-2.15.07-1.36.14-.53,3.12-2.29,2.35-1.45-1.01-1.82-1.03-3.3.59-.46.51-1.22,1.02-1.14,1.77.08.69,1.07,1.36.78,2.11-.33.73-1.5.5-2.04.93-.79.72-.37,2.68-.41,3.57.08,1.02,1.12,1.02,1.87,1.23,1.26.43.26,1.58-.12,2.29-.37.75.32,1.34,1.22,2.24.38.36.76.82,1.21,1.05.96.52,1.72-1.02,2.66-.69.46.18.56.82.64,1.28.15,1.76,2.6,1.13,3.87,1.17,1.9-.18.35-3.96,3.22-1.9,1.11.71,1.7-.29,2.54-1.07.82-.78,1.67-1.54.7-2.67-.78-.95-.31-1.7.75-1.81.85-.07,1.45-.6,1.38-1.48-.1-1.04.43-2.96-.78-3.4l-.15-.05Z"/>
  <path class="cls-1" d="M14.78,11.09c-.24,5.06-7.62,4.83-7.5-.28.32-4.8,7.33-4.68,7.5.13v.15Z"/>
</svg>